# xmcd
#
# Track frame offsets: 
#        150
#        18760
#        42357
#        69305
#        82767
#        94572
#        111565
#        132620
#        162302
#        178595
#        197297
#
# Disc length: 2783 seconds
#
# Revision: 3
# Processed by: cddbd v1.5.2PL0 Copyright (c) Steve Scherf et al.
# Submitted via: ExactAudioCopy v1.0b3
#
DISCID=850add0b
DTITLE=Foley, Sue - Ten Days In November
DYEAR=1998
DGENRE=Electric Blues
TTITLE0=Highwayside
TTITLE1=Baltimore Skyline
TTITLE2=Long Way To Go
TTITLE3=The Waiting Game
TTITLE4=Give My Love To You
TTITLE5=She Don't Belong To You
TTITLE6=Through The Night
TTITLE7=Winds Of Change
TTITLE8=The Forest
TTITLE9=Promised Land
TTITLE10=New Roads
EXTD=YEAR: 1998
EXTT0=
EXTT1=
EXTT2=
EXTT3=
EXTT4=
EXTT5=
EXTT6=
EXTT7=
EXTT8=
EXTT9=
EXTT10=
PLAYORDER=
